Coordinates
version=1
nRows=14
nColumns=33
inDegrees=yes

Units are S.I. units (second, meters, Newtons, ...)
Angles are in degrees.

endheader
time	ground_thorax_rot_x	ground_thorax_rot_y	ground_thorax_rot_z	ground_thorax_tx	ground_thorax_ty	ground_thorax_tz	clav_prot_r	clav_elev_r	scapula_abduction_r	scapula_elevation_r	scapula_upward_rot_r	scapula_winging_r	shoulder_elv_r	plane_of_elev_r	axial_rot_r	elbow_flexion_r	pro_sup_r	wrist_flex_r	wrist_dev_r	clav_prot_l	clav_elev_l	scapula_abduction_l	scapula_elevation_l	scapula_upward_rot_l	scapula_winging_l	shoulder_elv_l	plane_of_elev_l	axial_rot_l	elbow_flexion_l	pro_sup_l	wrist_flex_l	wrist_dev_l
      3.79000000	     -1.32263371	      1.73566318	     10.60586492	     -0.09774756	      1.03318934	      0.00845028	      9.84745971	    -10.07858873	     17.67681939	     -3.34365124	      0.94164792	     -3.83817042	    -58.79097066	    -71.93342057	     83.61554305	    -57.42942079	   -136.57192388	     49.09449049	    -24.99999983	      8.59395741	     -1.59642341	    -10.36670684	    -21.56147645	    -37.71742946	     -2.56512246	     57.42846540	    -38.70198987	     -1.34998575	     59.65900117	     24.88470844	      0.56875580	    -24.99999983
      3.80000000	     -2.10080360	      2.41470583	     11.11806615	     -0.09841583	      1.03204052	      0.00829319	      9.13371435	    -10.63395068	     15.60756895	     -3.08288354	     -0.91523973	     -2.72311994	    -54.11289885	    -71.78449713	     87.59893757	    -56.54128540	   -137.39334948	     53.41964952	    -24.99999983	      9.80263894	     -0.36615176	    -12.60416947	    -23.06165999	    -38.44836114	     -1.93695969	     56.28684388	    -37.01349499	     -0.56511428	     59.04020153	     26.11224269	     -4.96198794	    -24.99999983
      3.81000000	     -2.09326193	      2.42217199	     11.18391891	     -0.09863377	      1.03167310	      0.00820565	      9.11565260	    -10.65615858	     15.58537830	     -3.11056512	     -0.89910764	     -2.70882816	    -54.11040441	    -71.69908545	     87.63080877	    -56.56049057	   -137.40289740	     53.41062145	    -24.99999983	      9.78423514	     -0.42635947	    -12.57568530	    -22.99958935	    -38.44139514	     -1.93928286	     56.25420054	    -36.94221103	     -0.55580879	     59.05587990	     26.11135786	     -4.96425545	    -24.99999983
      3.82000000	     -1.95357386	      2.54341589	     10.88936437	     -0.09866861	      1.03199300	      0.00824658	      8.94551095	    -10.69103827	     15.38486903	     -3.22670697	     -0.70425227	     -2.61950316	    -53.57987185	    -71.55190260	     87.88056341	    -56.48563638	   -137.71828290	     53.19686151	    -24.99999983	      9.82255402	     -0.87469683	    -12.66610921	    -22.50502790	    -38.34008268	     -1.81192443	     56.21870189	    -36.71408645	     -0.19681831	     58.82844091	     26.21509475	     -5.09136431	    -24.99999983
      3.83000000	     -1.96483792	      2.51170641	     10.98015580	     -0.09885613	      1.03171649	      0.00821092	      8.93688943	    -10.69764178	     15.37729670	     -3.23928522	     -0.68865664	     -2.61494501	    -53.57773312	    -71.52794351	     87.89397307	    -56.50882533	   -137.72115672	     53.20029326	    -24.99999983	      9.82311845	     -0.89611546	    -12.66175477	    -22.46814307	    -38.30590539	     -1.80228094	     56.23554703	    -36.65935752	     -0.18685058	     58.85672806	     26.21400628	     -5.09699566	    -24.99999983
      3.84000000	     -1.97818187	      2.48903464	     11.06903811	     -0.09902118	      1.03157201	      0.00814791	      8.92872996	    -10.70130135	     15.37097687	     -3.24977138	     -0.67239433	     -2.61170219	    -53.57428430	    -71.50576824	     87.90702358	    -56.54103027	   -137.72506276	     53.20590525	    -24.99999983	      9.82417460	     -0.91607200	    -12.65705997	    -22.43018635	    -38.26779894	     -1.79314291	     56.25870095	    -36.60385124	     -0.17054973	     58.88694794	     26.21325300	     -5.10442699	    -24.99999983
      3.85000000	     -1.99543888	      2.46456370	     11.14532762	     -0.09913791	      1.03149754	      0.00808145	      8.92200656	    -10.69756406	     15.36599181	     -3.25202236	     -0.65801818	     -2.61164517	    -53.56834669	    -71.49439053	     87.91577666	    -56.57970167	   -137.73025463	     53.21298317	    -24.99999983	      9.82967234	     -0.93060957	    -12.65792301	    -22.39462714	    -38.22171402	     -1.78202850	     56.29516513	    -36.55112829	     -0.14850426	     58.91867416	     26.21258798	     -5.11343465	    -24.99999983
      3.86000000	     -2.04449287	      2.49078449	     11.03936869	     -0.09909983	      1.03089637	      0.00820115	      8.83850905	    -10.54059479	     15.23162994	     -3.12303113	     -0.62802964	     -2.62357394	    -53.52527880	    -71.45663020	     88.12494704	    -57.23243176	   -137.85686878	     53.33822413	    -24.99999983	      9.86014153	     -0.94216818	    -12.70431797	    -22.36320487	    -38.18478717	     -1.75922448	     56.45318467	    -36.53891045	      0.00873043	     59.25149184	     26.29948865	     -5.26090725	    -24.99999983
      3.87000000	     -2.05288541	      2.44527000	     11.10421784	     -0.09911756	      1.03099215	      0.00816713	      8.83679783	    -10.53104225	     15.23209361	     -3.11758415	     -0.62063239	     -2.62541326	    -53.51329882	    -71.48028327	     88.12176180	    -57.24520871	   -137.86272700	     53.33935232	    -24.99999983	      9.87540089	     -0.94566414	    -12.71977156	    -22.33254395	    -38.12823895	     -1.73877308	     56.50462781	    -36.48413309	      0.02167816	     59.28649362	     26.29891112	     -5.26925347	    -24.99999983
      3.88000000	     -1.82678185	      2.84948624	     11.10017369	     -0.09916247	      1.03099693	      0.00825999	      8.05964335	    -10.29494674	     13.63165336	     -2.67104403	     -1.18898072	     -2.07692207	    -51.71256324	    -72.43003752	     90.46132208	    -58.15921928	   -140.05557958	     52.50971540	    -24.99999983	     10.25653362	     -1.76174172	    -13.76350373	    -22.07215270	    -39.33513423	     -1.39978207	     57.41340565	    -36.23812282	     -0.06491067	     59.98644284	     27.97680503	     -6.92335851	    -24.99999983
      3.89000000	     -1.85545485	      2.78973137	     11.17676817	     -0.09912605	      1.03129253	      0.00820773	      8.05973240	    -10.28387386	     13.63874780	     -2.66906477	     -1.17165612	     -2.08082926	    -51.69711451	    -72.45551087	     90.45416903	    -58.18410491	   -140.05676080	     52.51452448	    -24.99999983	     10.27607865	     -1.75782974	    -13.78272618	    -22.04192428	    -39.26403581	     -1.37798942	     57.47446669	    -36.17761911	     -0.04834423	     60.02698475	     27.97069284	     -6.93064719	    -24.99999983
      3.90000000	     -2.00905979	      2.76885216	     11.15786377	     -0.09927508	      1.03039661	      0.00803531	      8.05922356	    -10.15260908	     13.62097535	     -2.53700885	     -1.19729715	     -2.12857628	    -51.76633185	    -72.68365740	     90.83166371	    -58.95816869	   -140.04432394	     52.63606351	    -24.99999983	     10.38897959	     -1.42075930	    -13.93196371	    -22.31309409	    -39.15162327	     -1.33890315	     57.58036130	    -36.18189424	     -0.14690757	     60.90609424	     27.87643869	     -7.09810571	    -24.99999983
      3.91000000	     -2.07368105	      2.74692579	     11.11664955	     -0.09948976	      1.03045252	      0.00795763	      8.09946095	    -10.15027350	     13.70931273	     -2.55250638	     -1.15315495	     -2.16616943	    -51.81862308	    -72.85055442	     91.03082477	    -59.35014545	   -140.04956311	     52.67750646	    -24.99999983	     10.48795054	     -1.34290022	    -14.07263971	    -22.32221903	    -39.02022579	     -1.26215773	     57.71856636	    -36.06679593	     -0.25376668	     61.26288316	     27.83354389	     -7.16065409	    -24.99999983
      3.92000000	     -2.12988178	      2.71772873	     11.07273200	     -0.09950933	      1.03019854	      0.00791250	      8.09185969	    -10.04916718	     13.72938386	     -2.49523623	     -1.07130412	     -2.21575852	    -51.82477459	    -72.99048981	     91.20506883	    -59.90677266	   -140.09852295	     52.70555671	    -24.99999983	     10.57665768	     -1.22560005	    -14.19674546	    -22.38391973	    -38.91674399	     -1.20607253	     57.84222417	    -36.00018468	     -0.34876496	     61.91301970	     27.74040334	     -7.27381054	    -24.99999983
